<mxfile host="app.diagrams.net" modified="2022-10-10T09:08:11.195Z" agent="5.0 (Macintosh; Intel Mac OS X 10_15_7) AppleWebKit/537.36 (KHTML, like Gecko) Chrome/105.0.0.0 Safari/537.36" etag="Cywt5aAR7zaJ7HOuVcD4" version="20.3.1" type="github" pages="2">
  <diagram name="Page-1" id="74e2e168-ea6b-b213-b513-2b3c1d86103e">
    <mxGraphModel dx="1331" dy="697" grid="1" gridSize="10" guides="1" tooltips="1" connect="1" arrows="1" fold="1" page="1" pageScale="1" pageWidth="1100" pageHeight="850" background="none" math="0" shadow="0">
      <root>
        <mxCell id="0" />
        <mxCell id="1" parent="0" />
        <mxCell id="77e6c97f196da883-1" value="支付流程" style="swimlane;html=1;childLayout=stackLayout;startSize=20;rounded=0;shadow=0;labelBackgroundColor=none;strokeWidth=1;fontFamily=Verdana;fontSize=8;align=center;" parent="1" vertex="1">
          <mxGeometry x="70" y="40" width="800" height="750" as="geometry" />
        </mxCell>
        <mxCell id="77e6c97f196da883-2" value="用户" style="swimlane;html=1;startSize=20;" parent="77e6c97f196da883-1" vertex="1">
          <mxGeometry y="20" width="160" height="730" as="geometry" />
        </mxCell>
        <mxCell id="77e6c97f196da883-8" value="入口" style="rounded=1;whiteSpace=wrap;html=1;shadow=0;labelBackgroundColor=none;strokeWidth=1;fontFamily=Verdana;fontSize=8;align=center;" parent="77e6c97f196da883-2" vertex="1">
          <mxGeometry x="20" y="65" width="100" height="60" as="geometry" />
        </mxCell>
        <mxCell id="77e6c97f196da883-9" value="" style="rounded=1;whiteSpace=wrap;html=1;shadow=0;labelBackgroundColor=none;strokeWidth=1;fontFamily=Verdana;fontSize=8;align=center;" parent="77e6c97f196da883-2" vertex="1">
          <mxGeometry x="20" y="155" width="100" height="60" as="geometry" />
        </mxCell>
        <mxCell id="77e6c97f196da883-10" value="" style="rounded=1;whiteSpace=wrap;html=1;shadow=0;labelBackgroundColor=none;strokeWidth=1;fontFamily=Verdana;fontSize=8;align=center;" parent="77e6c97f196da883-2" vertex="1">
          <mxGeometry x="30" y="560" width="100" height="60" as="geometry" />
        </mxCell>
        <mxCell id="77e6c97f196da883-26" style="edgeStyle=orthogonalEdgeStyle;rounded=1;html=1;labelBackgroundColor=none;startArrow=none;startFill=0;startSize=5;endArrow=classicThin;endFill=1;endSize=5;jettySize=auto;orthogonalLoop=1;strokeWidth=1;fontFamily=Verdana;fontSize=8" parent="77e6c97f196da883-1" source="77e6c97f196da883-8" target="77e6c97f196da883-11" edge="1">
          <mxGeometry relative="1" as="geometry" />
        </mxCell>
        <mxCell id="77e6c97f196da883-27" style="edgeStyle=orthogonalEdgeStyle;rounded=1;html=1;labelBackgroundColor=none;startArrow=none;startFill=0;startSize=5;endArrow=classicThin;endFill=1;endSize=5;jettySize=auto;orthogonalLoop=1;strokeWidth=1;fontFamily=Verdana;fontSize=8" parent="77e6c97f196da883-1" source="77e6c97f196da883-11" target="77e6c97f196da883-9" edge="1">
          <mxGeometry relative="1" as="geometry">
            <Array as="points">
              <mxPoint x="240" y="155" />
              <mxPoint x="70" y="155" />
            </Array>
          </mxGeometry>
        </mxCell>
        <mxCell id="77e6c97f196da883-28" style="edgeStyle=orthogonalEdgeStyle;rounded=1;html=1;labelBackgroundColor=none;startArrow=none;startFill=0;startSize=5;endArrow=classicThin;endFill=1;endSize=5;jettySize=auto;orthogonalLoop=1;strokeWidth=1;fontFamily=Verdana;fontSize=8" parent="77e6c97f196da883-1" source="77e6c97f196da883-9" target="77e6c97f196da883-12" edge="1">
          <mxGeometry relative="1" as="geometry" />
        </mxCell>
        <mxCell id="77e6c97f196da883-30" style="edgeStyle=orthogonalEdgeStyle;rounded=1;html=1;labelBackgroundColor=none;startArrow=none;startFill=0;startSize=5;endArrow=classicThin;endFill=1;endSize=5;jettySize=auto;orthogonalLoop=1;strokeWidth=1;fontFamily=Verdana;fontSize=8" parent="77e6c97f196da883-1" source="77e6c97f196da883-13" target="77e6c97f196da883-9" edge="1">
          <mxGeometry relative="1" as="geometry" />
        </mxCell>
        <mxCell id="77e6c97f196da883-31" style="edgeStyle=orthogonalEdgeStyle;rounded=1;html=1;labelBackgroundColor=none;startArrow=none;startFill=0;startSize=5;endArrow=classicThin;endFill=1;endSize=5;jettySize=auto;orthogonalLoop=1;strokeWidth=1;fontFamily=Verdana;fontSize=8" parent="77e6c97f196da883-1" source="77e6c97f196da883-16" target="77e6c97f196da883-9" edge="1">
          <mxGeometry relative="1" as="geometry" />
        </mxCell>
        <mxCell id="77e6c97f196da883-32" style="edgeStyle=orthogonalEdgeStyle;rounded=1;html=1;labelBackgroundColor=none;startArrow=none;startFill=0;startSize=5;endArrow=classicThin;endFill=1;endSize=5;jettySize=auto;orthogonalLoop=1;strokeWidth=1;fontFamily=Verdana;fontSize=8" parent="77e6c97f196da883-1" source="77e6c97f196da883-20" target="77e6c97f196da883-9" edge="1">
          <mxGeometry relative="1" as="geometry">
            <Array as="points">
              <mxPoint x="20" y="690" />
              <mxPoint x="20" y="370" />
              <mxPoint x="70" y="370" />
            </Array>
          </mxGeometry>
        </mxCell>
        <mxCell id="77e6c97f196da883-33" style="edgeStyle=orthogonalEdgeStyle;rounded=1;html=1;labelBackgroundColor=none;startArrow=none;startFill=0;startSize=5;endArrow=classicThin;endFill=1;endSize=5;jettySize=auto;orthogonalLoop=1;strokeWidth=1;fontFamily=Verdana;fontSize=8" parent="77e6c97f196da883-1" source="77e6c97f196da883-13" target="77e6c97f196da883-15" edge="1">
          <mxGeometry relative="1" as="geometry" />
        </mxCell>
        <mxCell id="77e6c97f196da883-39" style="edgeStyle=orthogonalEdgeStyle;rounded=1;html=1;labelBackgroundColor=none;startArrow=none;startFill=0;startSize=5;endArrow=classicThin;endFill=1;endSize=5;jettySize=auto;orthogonalLoop=1;strokeWidth=1;fontFamily=Verdana;fontSize=8" parent="77e6c97f196da883-1" source="77e6c97f196da883-20" target="77e6c97f196da883-23" edge="1">
          <mxGeometry relative="1" as="geometry" />
        </mxCell>
        <mxCell id="77e6c97f196da883-40" style="edgeStyle=orthogonalEdgeStyle;rounded=1;html=1;labelBackgroundColor=none;startArrow=none;startFill=0;startSize=5;endArrow=classicThin;endFill=1;endSize=5;jettySize=auto;orthogonalLoop=1;strokeWidth=1;fontFamily=Verdana;fontSize=8" parent="77e6c97f196da883-1" source="77e6c97f196da883-23" edge="1">
          <mxGeometry relative="1" as="geometry">
            <mxPoint x="830" y="690" as="targetPoint" />
          </mxGeometry>
        </mxCell>
        <mxCell id="107ba76e4e335f99-1" style="edgeStyle=orthogonalEdgeStyle;rounded=1;html=1;labelBackgroundColor=none;startArrow=none;startFill=0;startSize=5;endArrow=classicThin;endFill=1;endSize=5;jettySize=auto;orthogonalLoop=1;strokeWidth=1;fontFamily=Verdana;fontSize=8" parent="77e6c97f196da883-1" source="77e6c97f196da883-17" target="77e6c97f196da883-18" edge="1">
          <mxGeometry relative="1" as="geometry" />
        </mxCell>
        <mxCell id="107ba76e4e335f99-2" style="edgeStyle=orthogonalEdgeStyle;rounded=1;html=1;labelBackgroundColor=none;startArrow=none;startFill=0;startSize=5;endArrow=classicThin;endFill=1;endSize=5;jettySize=auto;orthogonalLoop=1;strokeWidth=1;fontFamily=Verdana;fontSize=8" parent="77e6c97f196da883-1" source="77e6c97f196da883-22" target="77e6c97f196da883-14" edge="1">
          <mxGeometry relative="1" as="geometry">
            <Array as="points">
              <mxPoint x="660" y="610" />
              <mxPoint x="660" y="550" />
              <mxPoint x="400" y="550" />
            </Array>
          </mxGeometry>
        </mxCell>
        <mxCell id="107ba76e4e335f99-3" style="edgeStyle=orthogonalEdgeStyle;rounded=1;html=1;labelBackgroundColor=none;startArrow=none;startFill=0;startSize=5;endArrow=classicThin;endFill=1;endSize=5;jettySize=auto;orthogonalLoop=1;strokeColor=#000000;strokeWidth=1;fontFamily=Verdana;fontSize=8;fontColor=#000000;" parent="77e6c97f196da883-1" source="77e6c97f196da883-22" target="77e6c97f196da883-19" edge="1">
          <mxGeometry relative="1" as="geometry" />
        </mxCell>
        <mxCell id="107ba76e4e335f99-4" style="edgeStyle=orthogonalEdgeStyle;rounded=1;html=1;labelBackgroundColor=none;startArrow=none;startFill=0;startSize=5;endArrow=classicThin;endFill=1;endSize=5;jettySize=auto;orthogonalLoop=1;strokeWidth=1;fontFamily=Verdana;fontSize=8" parent="77e6c97f196da883-1" source="77e6c97f196da883-22" target="77e6c97f196da883-10" edge="1">
          <mxGeometry relative="1" as="geometry">
            <Array as="points">
              <mxPoint x="660" y="610" />
              <mxPoint x="660" y="550" />
              <mxPoint x="80" y="550" />
            </Array>
          </mxGeometry>
        </mxCell>
        <mxCell id="107ba76e4e335f99-5" style="edgeStyle=orthogonalEdgeStyle;rounded=1;html=1;labelBackgroundColor=none;startArrow=none;startFill=0;startSize=5;endArrow=classicThin;endFill=1;endSize=5;jettySize=auto;orthogonalLoop=1;strokeWidth=1;fontFamily=Verdana;fontSize=8" parent="77e6c97f196da883-1" source="77e6c97f196da883-10" target="77e6c97f196da883-19" edge="1">
          <mxGeometry relative="1" as="geometry">
            <Array as="points">
              <mxPoint x="80" y="650" />
              <mxPoint x="490" y="650" />
              <mxPoint x="490" y="610" />
            </Array>
          </mxGeometry>
        </mxCell>
        <mxCell id="107ba76e4e335f99-6" style="edgeStyle=orthogonalEdgeStyle;rounded=1;html=1;labelBackgroundColor=none;startArrow=none;startFill=0;startSize=5;endArrow=classicThin;endFill=1;endSize=5;jettySize=auto;orthogonalLoop=1;strokeWidth=1;fontFamily=Verdana;fontSize=8" parent="77e6c97f196da883-1" source="77e6c97f196da883-14" target="77e6c97f196da883-19" edge="1">
          <mxGeometry relative="1" as="geometry" />
        </mxCell>
        <mxCell id="77e6c97f196da883-3" value="服务商(发卡平台)" style="swimlane;html=1;startSize=20;" parent="77e6c97f196da883-1" vertex="1">
          <mxGeometry x="160" y="20" width="160" height="730" as="geometry" />
        </mxCell>
        <mxCell id="77e6c97f196da883-11" value="创建" style="rounded=1;whiteSpace=wrap;html=1;shadow=0;labelBackgroundColor=none;strokeWidth=1;fontFamily=Verdana;fontSize=8;align=center;" parent="77e6c97f196da883-3" vertex="1">
          <mxGeometry x="30" y="65" width="100" height="60" as="geometry" />
        </mxCell>
        <mxCell id="77e6c97f196da883-4" value="监管平台" style="swimlane;html=1;startSize=20;" parent="77e6c97f196da883-1" vertex="1">
          <mxGeometry x="320" y="20" width="160" height="730" as="geometry" />
        </mxCell>
        <mxCell id="77e6c97f196da883-12" value="" style="rounded=1;whiteSpace=wrap;html=1;shadow=0;labelBackgroundColor=none;strokeWidth=1;fontFamily=Verdana;fontSize=8;align=center;" parent="77e6c97f196da883-4" vertex="1">
          <mxGeometry x="30" y="155" width="100" height="60" as="geometry" />
        </mxCell>
        <mxCell id="77e6c97f196da883-13" value="" style="rhombus;whiteSpace=wrap;html=1;rounded=0;shadow=0;labelBackgroundColor=none;strokeWidth=1;fontFamily=Verdana;fontSize=8;align=center;" parent="77e6c97f196da883-4" vertex="1">
          <mxGeometry x="40" y="240" width="80" height="60" as="geometry" />
        </mxCell>
        <mxCell id="77e6c97f196da883-14" value="" style="rounded=1;whiteSpace=wrap;html=1;shadow=0;labelBackgroundColor=none;strokeWidth=1;fontFamily=Verdana;fontSize=8;align=center;" parent="77e6c97f196da883-4" vertex="1">
          <mxGeometry x="30" y="560" width="100" height="60" as="geometry" />
        </mxCell>
        <mxCell id="77e6c97f196da883-29" style="edgeStyle=orthogonalEdgeStyle;rounded=1;html=1;labelBackgroundColor=none;startArrow=none;startFill=0;startSize=5;endArrow=classicThin;endFill=1;endSize=5;jettySize=auto;orthogonalLoop=1;strokeWidth=1;fontFamily=Verdana;fontSize=8" parent="77e6c97f196da883-4" source="77e6c97f196da883-12" target="77e6c97f196da883-13" edge="1">
          <mxGeometry relative="1" as="geometry" />
        </mxCell>
        <mxCell id="77e6c97f196da883-5" value="收单机构" style="swimlane;html=1;startSize=20;" parent="77e6c97f196da883-1" vertex="1">
          <mxGeometry x="480" y="20" width="160" height="730" as="geometry" />
        </mxCell>
        <mxCell id="77e6c97f196da883-15" value="" style="rounded=1;whiteSpace=wrap;html=1;shadow=0;labelBackgroundColor=none;strokeWidth=1;fontFamily=Verdana;fontSize=8;align=center;" parent="77e6c97f196da883-5" vertex="1">
          <mxGeometry x="30" y="240" width="100" height="60" as="geometry" />
        </mxCell>
        <mxCell id="77e6c97f196da883-16" value="" style="rhombus;whiteSpace=wrap;html=1;rounded=0;shadow=0;labelBackgroundColor=none;strokeWidth=1;fontFamily=Verdana;fontSize=8;align=center;" parent="77e6c97f196da883-5" vertex="1">
          <mxGeometry x="40" y="320" width="80" height="60" as="geometry" />
        </mxCell>
        <mxCell id="77e6c97f196da883-17" value="" style="rounded=1;whiteSpace=wrap;html=1;shadow=0;labelBackgroundColor=none;strokeWidth=1;fontFamily=Verdana;fontSize=8;align=center;" parent="77e6c97f196da883-5" vertex="1">
          <mxGeometry x="30" y="400" width="100" height="60" as="geometry" />
        </mxCell>
        <mxCell id="77e6c97f196da883-19" value="" style="rounded=1;whiteSpace=wrap;html=1;shadow=0;labelBackgroundColor=none;strokeWidth=1;fontFamily=Verdana;fontSize=8;align=center;" parent="77e6c97f196da883-5" vertex="1">
          <mxGeometry x="30" y="560" width="100" height="60" as="geometry" />
        </mxCell>
        <mxCell id="77e6c97f196da883-20" value="" style="rhombus;whiteSpace=wrap;html=1;rounded=0;shadow=0;labelBackgroundColor=none;strokeWidth=1;fontFamily=Verdana;fontSize=8;align=center;" parent="77e6c97f196da883-5" vertex="1">
          <mxGeometry x="40" y="640" width="80" height="60" as="geometry" />
        </mxCell>
        <mxCell id="77e6c97f196da883-34" style="edgeStyle=orthogonalEdgeStyle;rounded=1;html=1;labelBackgroundColor=none;startArrow=none;startFill=0;startSize=5;endArrow=classicThin;endFill=1;endSize=5;jettySize=auto;orthogonalLoop=1;strokeColor=#000000;strokeWidth=1;fontFamily=Verdana;fontSize=8;fontColor=#000000;" parent="77e6c97f196da883-5" source="77e6c97f196da883-15" target="77e6c97f196da883-16" edge="1">
          <mxGeometry relative="1" as="geometry" />
        </mxCell>
        <mxCell id="77e6c97f196da883-35" style="edgeStyle=orthogonalEdgeStyle;rounded=1;html=1;labelBackgroundColor=none;startArrow=none;startFill=0;startSize=5;endArrow=classicThin;endFill=1;endSize=5;jettySize=auto;orthogonalLoop=1;strokeWidth=1;fontFamily=Verdana;fontSize=8" parent="77e6c97f196da883-5" source="77e6c97f196da883-16" target="77e6c97f196da883-17" edge="1">
          <mxGeometry relative="1" as="geometry" />
        </mxCell>
        <mxCell id="77e6c97f196da883-36" style="edgeStyle=orthogonalEdgeStyle;rounded=1;html=1;labelBackgroundColor=none;startArrow=none;startFill=0;startSize=5;endArrow=classicThin;endFill=1;endSize=5;jettySize=auto;orthogonalLoop=1;strokeWidth=1;fontFamily=Verdana;fontSize=8" parent="77e6c97f196da883-5" source="77e6c97f196da883-19" target="77e6c97f196da883-20" edge="1">
          <mxGeometry relative="1" as="geometry" />
        </mxCell>
        <mxCell id="77e6c97f196da883-6" value="监管机构" style="swimlane;html=1;startSize=20;" parent="77e6c97f196da883-1" vertex="1">
          <mxGeometry x="640" y="20" width="160" height="730" as="geometry" />
        </mxCell>
        <mxCell id="77e6c97f196da883-18" value="" style="rounded=1;whiteSpace=wrap;html=1;shadow=0;labelBackgroundColor=none;strokeWidth=1;fontFamily=Verdana;fontSize=8;align=center;" parent="77e6c97f196da883-6" vertex="1">
          <mxGeometry x="30" y="400" width="100" height="60" as="geometry" />
        </mxCell>
        <mxCell id="77e6c97f196da883-21" value="" style="rounded=1;whiteSpace=wrap;html=1;shadow=0;labelBackgroundColor=none;strokeWidth=1;fontFamily=Verdana;fontSize=8;align=center;" parent="77e6c97f196da883-6" vertex="1">
          <mxGeometry x="30" y="480" width="100" height="60" as="geometry" />
        </mxCell>
        <mxCell id="77e6c97f196da883-22" value="" style="rounded=1;whiteSpace=wrap;html=1;shadow=0;labelBackgroundColor=none;strokeWidth=1;fontFamily=Verdana;fontSize=8;align=center;" parent="77e6c97f196da883-6" vertex="1">
          <mxGeometry x="30" y="560" width="100" height="60" as="geometry" />
        </mxCell>
        <mxCell id="77e6c97f196da883-23" value="" style="rounded=1;whiteSpace=wrap;html=1;shadow=0;labelBackgroundColor=none;strokeWidth=1;fontFamily=Verdana;fontSize=8;align=center;" parent="77e6c97f196da883-6" vertex="1">
          <mxGeometry x="30" y="640" width="100" height="60" as="geometry" />
        </mxCell>
        <mxCell id="77e6c97f196da883-37" style="edgeStyle=orthogonalEdgeStyle;rounded=1;html=1;labelBackgroundColor=none;startArrow=none;startFill=0;startSize=5;endArrow=classicThin;endFill=1;endSize=5;jettySize=auto;orthogonalLoop=1;strokeWidth=1;fontFamily=Verdana;fontSize=8" parent="77e6c97f196da883-6" source="77e6c97f196da883-18" target="77e6c97f196da883-21" edge="1">
          <mxGeometry relative="1" as="geometry" />
        </mxCell>
        <mxCell id="77e6c97f196da883-38" style="edgeStyle=orthogonalEdgeStyle;rounded=1;html=1;labelBackgroundColor=none;startArrow=none;startFill=0;startSize=5;endArrow=classicThin;endFill=1;endSize=5;jettySize=auto;orthogonalLoop=1;strokeWidth=1;fontFamily=Verdana;fontSize=8" parent="77e6c97f196da883-6" source="77e6c97f196da883-21" target="77e6c97f196da883-22" edge="1">
          <mxGeometry relative="1" as="geometry" />
        </mxCell>
      </root>
    </mxGraphModel>
  </diagram>
  <diagram id="WAEQ9xs4csQEL-PWOu6K" name="第 2 页">
    <mxGraphModel dx="1174" dy="615" grid="1" gridSize="10" guides="1" tooltips="1" connect="1" arrows="1" fold="1" page="1" pageScale="1" pageWidth="827" pageHeight="1169" math="0" shadow="0">
      <root>
        <mxCell id="0" />
        <mxCell id="1" parent="0" />
        <mxCell id="zPZvmB452a-3w2U6dylG-1" value="C端用户" style="rounded=1;whiteSpace=wrap;html=1;" vertex="1" parent="1">
          <mxGeometry x="79" y="20" width="1041" height="60" as="geometry" />
        </mxCell>
        <mxCell id="zPZvmB452a-3w2U6dylG-2" value="放心充收银台" style="rounded=1;whiteSpace=wrap;html=1;" vertex="1" parent="1">
          <mxGeometry x="79" y="160" width="361" height="60" as="geometry" />
        </mxCell>
        <mxCell id="zPZvmB452a-3w2U6dylG-4" value="注册、支付" style="text;html=1;strokeColor=none;fillColor=none;align=center;verticalAlign=middle;whiteSpace=wrap;rounded=0;" vertex="1" parent="1">
          <mxGeometry x="224.5" y="110" width="70" height="30" as="geometry" />
        </mxCell>
        <mxCell id="zPZvmB452a-3w2U6dylG-9" value="放心充监管用户中心" style="rounded=1;whiteSpace=wrap;html=1;" vertex="1" parent="1">
          <mxGeometry x="480" y="160" width="280" height="60" as="geometry" />
        </mxCell>
        <mxCell id="zPZvmB452a-3w2U6dylG-26" value="" style="edgeStyle=orthogonalEdgeStyle;rounded=0;orthogonalLoop=1;jettySize=auto;html=1;" edge="1" parent="1" source="zPZvmB452a-3w2U6dylG-10" target="zPZvmB452a-3w2U6dylG-24">
          <mxGeometry relative="1" as="geometry" />
        </mxCell>
        <mxCell id="zPZvmB452a-3w2U6dylG-10" value="服务商前端页面" style="rounded=1;whiteSpace=wrap;html=1;" vertex="1" parent="1">
          <mxGeometry x="920" y="160" width="200" height="60" as="geometry" />
        </mxCell>
        <mxCell id="zPZvmB452a-3w2U6dylG-11" value="" style="endArrow=classic;html=1;rounded=0;entryX=0.5;entryY=0;entryDx=0;entryDy=0;exitX=0.173;exitY=0.975;exitDx=0;exitDy=0;exitPerimeter=0;" edge="1" parent="1" source="zPZvmB452a-3w2U6dylG-1" target="zPZvmB452a-3w2U6dylG-2">
          <mxGeometry width="50" height="50" relative="1" as="geometry">
            <mxPoint x="260" y="100" as="sourcePoint" />
            <mxPoint x="440" y="180" as="targetPoint" />
          </mxGeometry>
        </mxCell>
        <mxCell id="zPZvmB452a-3w2U6dylG-12" value="&lt;span style=&quot;&quot;&gt;核销确认、预付费商户退货回款确认&lt;/span&gt;" style="text;html=1;align=center;verticalAlign=middle;resizable=0;points=[];autosize=1;strokeColor=none;fillColor=none;" vertex="1" parent="1">
          <mxGeometry x="510" y="110" width="220" height="30" as="geometry" />
        </mxCell>
        <mxCell id="zPZvmB452a-3w2U6dylG-13" value="" style="endArrow=classic;html=1;rounded=0;exitX=0.52;exitY=0.975;exitDx=0;exitDy=0;entryX=0.5;entryY=0;entryDx=0;entryDy=0;exitPerimeter=0;" edge="1" parent="1" source="zPZvmB452a-3w2U6dylG-1" target="zPZvmB452a-3w2U6dylG-9">
          <mxGeometry width="50" height="50" relative="1" as="geometry">
            <mxPoint x="390" y="230" as="sourcePoint" />
            <mxPoint x="440" y="180" as="targetPoint" />
          </mxGeometry>
        </mxCell>
        <mxCell id="zPZvmB452a-3w2U6dylG-14" value="" style="endArrow=classic;html=1;rounded=0;entryX=0.5;entryY=0;entryDx=0;entryDy=0;" edge="1" parent="1" target="zPZvmB452a-3w2U6dylG-10">
          <mxGeometry width="50" height="50" relative="1" as="geometry">
            <mxPoint x="1020" y="80" as="sourcePoint" />
            <mxPoint x="610" y="120" as="targetPoint" />
          </mxGeometry>
        </mxCell>
        <mxCell id="zPZvmB452a-3w2U6dylG-15" value="商品列表、商品详情、订单、退款" style="text;html=1;align=center;verticalAlign=middle;resizable=0;points=[];autosize=1;strokeColor=none;fillColor=none;" vertex="1" parent="1">
          <mxGeometry x="910" y="110" width="200" height="30" as="geometry" />
        </mxCell>
        <mxCell id="zPZvmB452a-3w2U6dylG-16" value="" style="rounded=1;whiteSpace=wrap;html=1;" vertex="1" parent="1">
          <mxGeometry x="79" y="280" width="681" height="240" as="geometry" />
        </mxCell>
        <mxCell id="zPZvmB452a-3w2U6dylG-22" value="创建订单" style="rounded=1;whiteSpace=wrap;html=1;" vertex="1" parent="1">
          <mxGeometry x="670" y="300" width="70" height="60" as="geometry" />
        </mxCell>
        <mxCell id="zPZvmB452a-3w2U6dylG-23" value="鉴权" style="rounded=1;whiteSpace=wrap;html=1;" vertex="1" parent="1">
          <mxGeometry x="100" y="300" width="110" height="60" as="geometry" />
        </mxCell>
        <mxCell id="zPZvmB452a-3w2U6dylG-24" value="服务商服务端系统" style="rounded=1;whiteSpace=wrap;html=1;" vertex="1" parent="1">
          <mxGeometry x="920" y="280" width="200" height="240" as="geometry" />
        </mxCell>
        <mxCell id="zPZvmB452a-3w2U6dylG-25" value="" style="endArrow=classic;html=1;rounded=0;" edge="1" parent="1">
          <mxGeometry width="50" height="50" relative="1" as="geometry">
            <mxPoint x="920" y="320" as="sourcePoint" />
            <mxPoint x="760" y="320" as="targetPoint" />
          </mxGeometry>
        </mxCell>
        <mxCell id="zPZvmB452a-3w2U6dylG-28" value="创建订单" style="edgeLabel;html=1;align=center;verticalAlign=middle;resizable=0;points=[];" vertex="1" connectable="0" parent="zPZvmB452a-3w2U6dylG-25">
          <mxGeometry x="0.35" y="-2" relative="1" as="geometry">
            <mxPoint x="28" as="offset" />
          </mxGeometry>
        </mxCell>
        <mxCell id="zPZvmB452a-3w2U6dylG-27" value="" style="endArrow=classic;html=1;rounded=0;exitX=0.999;exitY=0.16;exitDx=0;exitDy=0;exitPerimeter=0;" edge="1" parent="1">
          <mxGeometry width="50" height="50" relative="1" as="geometry">
            <mxPoint x="759.9990000000001" y="460.0000000000001" as="sourcePoint" />
            <mxPoint x="920.68" y="461.6" as="targetPoint" />
          </mxGeometry>
        </mxCell>
        <mxCell id="zPZvmB452a-3w2U6dylG-40" value="交易回调" style="edgeLabel;html=1;align=center;verticalAlign=middle;resizable=0;points=[];" vertex="1" connectable="0" parent="zPZvmB452a-3w2U6dylG-27">
          <mxGeometry x="-0.4773" y="1" relative="1" as="geometry">
            <mxPoint x="37" as="offset" />
          </mxGeometry>
        </mxCell>
        <mxCell id="zPZvmB452a-3w2U6dylG-29" value="" style="endArrow=classic;html=1;rounded=0;" edge="1" parent="1">
          <mxGeometry width="50" height="50" relative="1" as="geometry">
            <mxPoint x="920" y="340" as="sourcePoint" />
            <mxPoint x="760" y="340" as="targetPoint" />
          </mxGeometry>
        </mxCell>
        <mxCell id="zPZvmB452a-3w2U6dylG-30" value="撤销交易" style="edgeLabel;html=1;align=center;verticalAlign=middle;resizable=0;points=[];" vertex="1" connectable="0" parent="zPZvmB452a-3w2U6dylG-29">
          <mxGeometry x="0.35" y="-2" relative="1" as="geometry">
            <mxPoint x="28" as="offset" />
          </mxGeometry>
        </mxCell>
        <mxCell id="zPZvmB452a-3w2U6dylG-31" value="" style="endArrow=classic;html=1;rounded=0;" edge="1" parent="1">
          <mxGeometry width="50" height="50" relative="1" as="geometry">
            <mxPoint x="920" y="360" as="sourcePoint" />
            <mxPoint x="760" y="360" as="targetPoint" />
          </mxGeometry>
        </mxCell>
        <mxCell id="zPZvmB452a-3w2U6dylG-32" value="线上退款" style="edgeLabel;html=1;align=center;verticalAlign=middle;resizable=0;points=[];" vertex="1" connectable="0" parent="zPZvmB452a-3w2U6dylG-31">
          <mxGeometry x="0.35" y="-2" relative="1" as="geometry">
            <mxPoint x="28" as="offset" />
          </mxGeometry>
        </mxCell>
        <mxCell id="zPZvmB452a-3w2U6dylG-33" value="下" style="endArrow=classic;html=1;rounded=0;" edge="1" parent="1">
          <mxGeometry width="50" height="50" relative="1" as="geometry">
            <mxPoint x="920" y="380" as="sourcePoint" />
            <mxPoint x="760" y="380" as="targetPoint" />
          </mxGeometry>
        </mxCell>
        <mxCell id="zPZvmB452a-3w2U6dylG-34" value="线下退款" style="edgeLabel;html=1;align=center;verticalAlign=middle;resizable=0;points=[];" vertex="1" connectable="0" parent="zPZvmB452a-3w2U6dylG-33">
          <mxGeometry x="0.35" y="-2" relative="1" as="geometry">
            <mxPoint x="28" as="offset" />
          </mxGeometry>
        </mxCell>
        <mxCell id="zPZvmB452a-3w2U6dylG-36" value="下" style="endArrow=classic;html=1;rounded=0;" edge="1" parent="1">
          <mxGeometry width="50" height="50" relative="1" as="geometry">
            <mxPoint x="920" y="399.38" as="sourcePoint" />
            <mxPoint x="760" y="399.38" as="targetPoint" />
          </mxGeometry>
        </mxCell>
        <mxCell id="zPZvmB452a-3w2U6dylG-37" value="商户登记修改" style="edgeLabel;html=1;align=center;verticalAlign=middle;resizable=0;points=[];" vertex="1" connectable="0" parent="zPZvmB452a-3w2U6dylG-36">
          <mxGeometry x="0.35" y="-2" relative="1" as="geometry">
            <mxPoint x="28" as="offset" />
          </mxGeometry>
        </mxCell>
        <mxCell id="zPZvmB452a-3w2U6dylG-38" value="下" style="endArrow=classic;html=1;rounded=0;" edge="1" parent="1">
          <mxGeometry width="50" height="50" relative="1" as="geometry">
            <mxPoint x="920" y="420.0000000000001" as="sourcePoint" />
            <mxPoint x="760" y="420.0000000000001" as="targetPoint" />
          </mxGeometry>
        </mxCell>
        <mxCell id="zPZvmB452a-3w2U6dylG-39" value="核销" style="edgeLabel;html=1;align=center;verticalAlign=middle;resizable=0;points=[];" vertex="1" connectable="0" parent="zPZvmB452a-3w2U6dylG-38">
          <mxGeometry x="0.35" y="-2" relative="1" as="geometry">
            <mxPoint x="28" as="offset" />
          </mxGeometry>
        </mxCell>
        <mxCell id="zPZvmB452a-3w2U6dylG-43" value="" style="endArrow=classic;html=1;rounded=0;exitX=0.999;exitY=0.16;exitDx=0;exitDy=0;exitPerimeter=0;" edge="1" parent="1">
          <mxGeometry width="50" height="50" relative="1" as="geometry">
            <mxPoint x="759.9990000000003" y="480" as="sourcePoint" />
            <mxPoint x="920.6799999999998" y="481.5999999999999" as="targetPoint" />
          </mxGeometry>
        </mxCell>
        <mxCell id="zPZvmB452a-3w2U6dylG-44" value="对账" style="edgeLabel;html=1;align=center;verticalAlign=middle;resizable=0;points=[];" vertex="1" connectable="0" parent="zPZvmB452a-3w2U6dylG-43">
          <mxGeometry x="-0.4773" y="1" relative="1" as="geometry">
            <mxPoint x="37" as="offset" />
          </mxGeometry>
        </mxCell>
        <mxCell id="zPZvmB452a-3w2U6dylG-45" value="监管机构" style="rounded=1;whiteSpace=wrap;html=1;" vertex="1" parent="1">
          <mxGeometry x="79" y="680" width="321" height="80" as="geometry" />
        </mxCell>
        <mxCell id="zPZvmB452a-3w2U6dylG-46" value="收单机构" style="rounded=1;whiteSpace=wrap;html=1;" vertex="1" parent="1">
          <mxGeometry x="440" y="680" width="320" height="80" as="geometry" />
        </mxCell>
        <mxCell id="zPZvmB452a-3w2U6dylG-47" value="注册" style="rounded=1;whiteSpace=wrap;html=1;" vertex="1" parent="1">
          <mxGeometry x="97.25" y="370" width="112.75" height="60" as="geometry" />
        </mxCell>
        <mxCell id="zPZvmB452a-3w2U6dylG-48" value="实名" style="rounded=1;whiteSpace=wrap;html=1;" vertex="1" parent="1">
          <mxGeometry x="100" y="440" width="110" height="60" as="geometry" />
        </mxCell>
        <mxCell id="zPZvmB452a-3w2U6dylG-49" value="支付" style="rounded=1;whiteSpace=wrap;html=1;" vertex="1" parent="1">
          <mxGeometry x="222" y="300" width="110" height="60" as="geometry" />
        </mxCell>
        <mxCell id="zPZvmB452a-3w2U6dylG-50" value="撤销交易" style="rounded=1;whiteSpace=wrap;html=1;" vertex="1" parent="1">
          <mxGeometry x="585" y="300" width="70" height="60" as="geometry" />
        </mxCell>
        <mxCell id="zPZvmB452a-3w2U6dylG-51" value="收单退款（线上）" style="rounded=1;whiteSpace=wrap;html=1;" vertex="1" parent="1">
          <mxGeometry x="585" y="370" width="70" height="60" as="geometry" />
        </mxCell>
        <mxCell id="zPZvmB452a-3w2U6dylG-52" value="预付费商会退款（线下）" style="rounded=1;whiteSpace=wrap;html=1;" vertex="1" parent="1">
          <mxGeometry x="585" y="440" width="70" height="60" as="geometry" />
        </mxCell>
        <mxCell id="zPZvmB452a-3w2U6dylG-53" value="商户登记修改" style="rounded=1;whiteSpace=wrap;html=1;" vertex="1" parent="1">
          <mxGeometry x="670" y="370" width="70" height="60" as="geometry" />
        </mxCell>
        <mxCell id="zPZvmB452a-3w2U6dylG-54" value="核销申请" style="rounded=1;whiteSpace=wrap;html=1;" vertex="1" parent="1">
          <mxGeometry x="670" y="440" width="70" height="60" as="geometry" />
        </mxCell>
        <mxCell id="zPZvmB452a-3w2U6dylG-55" value="确认核销" style="rounded=1;whiteSpace=wrap;html=1;" vertex="1" parent="1">
          <mxGeometry x="344" y="300" width="110" height="60" as="geometry" />
        </mxCell>
        <mxCell id="zPZvmB452a-3w2U6dylG-56" value="放心充监管平台服务端" style="text;html=1;align=center;verticalAlign=middle;resizable=0;points=[];autosize=1;strokeColor=none;fillColor=none;" vertex="1" parent="1">
          <mxGeometry x="344" y="276" width="140" height="30" as="geometry" />
        </mxCell>
        <mxCell id="zPZvmB452a-3w2U6dylG-57" value="预付费商会退款（线下）确认" style="rounded=1;whiteSpace=wrap;html=1;" vertex="1" parent="1">
          <mxGeometry x="344" y="370" width="110" height="60" as="geometry" />
        </mxCell>
        <mxCell id="zPZvmB452a-3w2U6dylG-58" value="订&lt;br&gt;单&lt;br&gt;上&lt;br&gt;送" style="endArrow=classic;html=1;rounded=0;exitX=0.078;exitY=0.996;exitDx=0;exitDy=0;exitPerimeter=0;entryX=0.165;entryY=0.001;entryDx=0;entryDy=0;entryPerimeter=0;" edge="1" parent="1" source="zPZvmB452a-3w2U6dylG-16" target="zPZvmB452a-3w2U6dylG-45">
          <mxGeometry width="50" height="50" relative="1" as="geometry">
            <mxPoint x="50" y="590" as="sourcePoint" />
            <mxPoint x="100" y="540" as="targetPoint" />
          </mxGeometry>
        </mxCell>
        <mxCell id="zPZvmB452a-3w2U6dylG-60" value="核&lt;br&gt;销" style="endArrow=classic;html=1;rounded=0;exitX=0.078;exitY=0.996;exitDx=0;exitDy=0;exitPerimeter=0;entryX=0.165;entryY=0.001;entryDx=0;entryDy=0;entryPerimeter=0;" edge="1" parent="1">
          <mxGeometry width="50" height="50" relative="1" as="geometry">
            <mxPoint x="154.52800000000016" y="520" as="sourcePoint" />
            <mxPoint x="154.37500000000014" y="681.3599999999999" as="targetPoint" />
          </mxGeometry>
        </mxCell>
        <mxCell id="zPZvmB452a-3w2U6dylG-61" value="预&lt;br&gt;付&lt;br&gt;费&lt;br&gt;商&lt;br&gt;户&lt;br&gt;退&lt;br&gt;货&lt;br&gt;回&lt;br&gt;款" style="endArrow=classic;html=1;rounded=0;exitX=0.078;exitY=0.996;exitDx=0;exitDy=0;exitPerimeter=0;entryX=0.165;entryY=0.001;entryDx=0;entryDy=0;entryPerimeter=0;" edge="1" parent="1">
          <mxGeometry width="50" height="50" relative="1" as="geometry">
            <mxPoint x="177.14800000000025" y="520" as="sourcePoint" />
            <mxPoint x="176.99500000000023" y="681.3599999999999" as="targetPoint" />
          </mxGeometry>
        </mxCell>
        <mxCell id="zPZvmB452a-3w2U6dylG-62" value="收&lt;br&gt;单&lt;br&gt;退&lt;br&gt;货&lt;br&gt;回&lt;br&gt;款" style="endArrow=classic;html=1;rounded=0;exitX=0.078;exitY=0.996;exitDx=0;exitDy=0;exitPerimeter=0;entryX=0.165;entryY=0.001;entryDx=0;entryDy=0;entryPerimeter=0;" edge="1" parent="1">
          <mxGeometry width="50" height="50" relative="1" as="geometry">
            <mxPoint x="202.14800000000025" y="520" as="sourcePoint" />
            <mxPoint x="201.99500000000023" y="681.3599999999999" as="targetPoint" />
          </mxGeometry>
        </mxCell>
        <mxCell id="zPZvmB452a-3w2U6dylG-63" value="商&lt;br&gt;户&lt;br&gt;登&lt;br&gt;记&lt;br&gt;修&lt;br&gt;改" style="endArrow=classic;html=1;rounded=0;exitX=0.078;exitY=0.996;exitDx=0;exitDy=0;exitPerimeter=0;entryX=0.165;entryY=0.001;entryDx=0;entryDy=0;entryPerimeter=0;" edge="1" parent="1">
          <mxGeometry width="50" height="50" relative="1" as="geometry">
            <mxPoint x="228.8979999999999" y="520" as="sourcePoint" />
            <mxPoint x="228.74500000000035" y="681.3599999999999" as="targetPoint" />
          </mxGeometry>
        </mxCell>
        <mxCell id="zPZvmB452a-3w2U6dylG-64" value="商&lt;br&gt;户&lt;br&gt;账&lt;br&gt;户&lt;br&gt;查&lt;br&gt;信&lt;br&gt;息&lt;br&gt;询" style="endArrow=classic;html=1;rounded=0;exitX=0.078;exitY=0.996;exitDx=0;exitDy=0;exitPerimeter=0;entryX=0.165;entryY=0.001;entryDx=0;entryDy=0;entryPerimeter=0;" edge="1" parent="1">
          <mxGeometry width="50" height="50" relative="1" as="geometry">
            <mxPoint x="254.1479999999999" y="520" as="sourcePoint" />
            <mxPoint x="253.99500000000035" y="681.3599999999999" as="targetPoint" />
          </mxGeometry>
        </mxCell>
        <mxCell id="zPZvmB452a-3w2U6dylG-65" value="对&lt;br&gt;账" style="endArrow=classic;html=1;rounded=0;exitX=0.078;exitY=0.996;exitDx=0;exitDy=0;exitPerimeter=0;entryX=0.165;entryY=0.001;entryDx=0;entryDy=0;entryPerimeter=0;" edge="1" parent="1">
          <mxGeometry width="50" height="50" relative="1" as="geometry">
            <mxPoint x="279.1479999999999" y="519.64" as="sourcePoint" />
            <mxPoint x="278.9950000000001" y="680.9999999999999" as="targetPoint" />
          </mxGeometry>
        </mxCell>
        <mxCell id="zPZvmB452a-3w2U6dylG-68" value="核&lt;br&gt;销&lt;br&gt;、&lt;br&gt;退&lt;br&gt;款&lt;br&gt;回&lt;br&gt;调" style="endArrow=classic;html=1;rounded=0;exitX=0.714;exitY=-0.002;exitDx=0;exitDy=0;exitPerimeter=0;entryX=0.337;entryY=1.002;entryDx=0;entryDy=0;entryPerimeter=0;" edge="1" parent="1">
          <mxGeometry width="50" height="50" relative="1" as="geometry">
            <mxPoint x="330.00399999999996" y="678.7199999999998" as="sourcePoint" />
            <mxPoint x="330.3070000000001" y="520" as="targetPoint" />
          </mxGeometry>
        </mxCell>
        <mxCell id="zPZvmB452a-3w2U6dylG-71" value="" style="endArrow=classic;html=1;rounded=0;exitX=0.5;exitY=1;exitDx=0;exitDy=0;entryX=0.265;entryY=-0.001;entryDx=0;entryDy=0;entryPerimeter=0;" edge="1" parent="1" source="zPZvmB452a-3w2U6dylG-2" target="zPZvmB452a-3w2U6dylG-16">
          <mxGeometry width="50" height="50" relative="1" as="geometry">
            <mxPoint x="570" y="490" as="sourcePoint" />
            <mxPoint x="620" y="440" as="targetPoint" />
          </mxGeometry>
        </mxCell>
        <mxCell id="zPZvmB452a-3w2U6dylG-72" value="" style="endArrow=classic;html=1;rounded=0;exitX=0.5;exitY=1;exitDx=0;exitDy=0;entryX=0.265;entryY=-0.001;entryDx=0;entryDy=0;entryPerimeter=0;" edge="1" parent="1">
          <mxGeometry width="50" height="50" relative="1" as="geometry">
            <mxPoint x="619.4100000000003" y="220" as="sourcePoint" />
            <mxPoint x="619.3750000000002" y="279.76" as="targetPoint" />
          </mxGeometry>
        </mxCell>
        <mxCell id="zPZvmB452a-3w2U6dylG-73" value="创&lt;br&gt;建&lt;br&gt;订&lt;br&gt;单" style="endArrow=classic;html=1;rounded=0;exitX=0.078;exitY=0.996;exitDx=0;exitDy=0;exitPerimeter=0;entryX=0.165;entryY=0.001;entryDx=0;entryDy=0;entryPerimeter=0;" edge="1" parent="1">
          <mxGeometry width="50" height="50" relative="1" as="geometry">
            <mxPoint x="490.14800000000014" y="518.9599999999999" as="sourcePoint" />
            <mxPoint x="489.9950000000001" y="680.0000000000001" as="targetPoint" />
          </mxGeometry>
        </mxCell>
        <mxCell id="zPZvmB452a-3w2U6dylG-74" value="申&lt;br&gt;请&lt;br&gt;分&lt;br&gt;账" style="endArrow=classic;html=1;rounded=0;exitX=0.078;exitY=0.996;exitDx=0;exitDy=0;exitPerimeter=0;entryX=0.165;entryY=0.001;entryDx=0;entryDy=0;entryPerimeter=0;" edge="1" parent="1">
          <mxGeometry width="50" height="50" relative="1" as="geometry">
            <mxPoint x="512.1480000000001" y="520" as="sourcePoint" />
            <mxPoint x="511.9950000000001" y="681.04" as="targetPoint" />
          </mxGeometry>
        </mxCell>
        <mxCell id="zPZvmB452a-3w2U6dylG-75" value="申&lt;br&gt;请&lt;br&gt;核&lt;br&gt;销" style="endArrow=classic;html=1;rounded=0;exitX=0.078;exitY=0.996;exitDx=0;exitDy=0;exitPerimeter=0;entryX=0.165;entryY=0.001;entryDx=0;entryDy=0;entryPerimeter=0;" edge="1" parent="1">
          <mxGeometry width="50" height="50" relative="1" as="geometry">
            <mxPoint x="535.1480000000004" y="520" as="sourcePoint" />
            <mxPoint x="534.9950000000001" y="681.0399999999997" as="targetPoint" />
          </mxGeometry>
        </mxCell>
        <mxCell id="zPZvmB452a-3w2U6dylG-76" value="撤&lt;br&gt;销" style="endArrow=classic;html=1;rounded=0;exitX=0.078;exitY=0.996;exitDx=0;exitDy=0;exitPerimeter=0;entryX=0.165;entryY=0.001;entryDx=0;entryDy=0;entryPerimeter=0;" edge="1" parent="1">
          <mxGeometry width="50" height="50" relative="1" as="geometry">
            <mxPoint x="560.1480000000004" y="520" as="sourcePoint" />
            <mxPoint x="559.9950000000001" y="681.0399999999997" as="targetPoint" />
          </mxGeometry>
        </mxCell>
        <mxCell id="zPZvmB452a-3w2U6dylG-77" value="抖音分账申请" style="rounded=1;whiteSpace=wrap;html=1;" vertex="1" parent="1">
          <mxGeometry x="222" y="370" width="110" height="60" as="geometry" />
        </mxCell>
        <mxCell id="zPZvmB452a-3w2U6dylG-78" value="抖音收单核销" style="rounded=1;whiteSpace=wrap;html=1;" vertex="1" parent="1">
          <mxGeometry x="222" y="440" width="110" height="60" as="geometry" />
        </mxCell>
        <mxCell id="zPZvmB452a-3w2U6dylG-79" value="退&lt;br&gt;款" style="endArrow=classic;html=1;rounded=0;exitX=0.078;exitY=0.996;exitDx=0;exitDy=0;exitPerimeter=0;entryX=0.165;entryY=0.001;entryDx=0;entryDy=0;entryPerimeter=0;" edge="1" parent="1">
          <mxGeometry width="50" height="50" relative="1" as="geometry">
            <mxPoint x="585.1480000000004" y="520" as="sourcePoint" />
            <mxPoint x="584.9950000000001" y="681.0399999999997" as="targetPoint" />
          </mxGeometry>
        </mxCell>
        <mxCell id="zPZvmB452a-3w2U6dylG-81" value="交&lt;br&gt;易&lt;br&gt;回&lt;br&gt;调" style="endArrow=classic;html=1;rounded=0;exitX=0.714;exitY=-0.002;exitDx=0;exitDy=0;exitPerimeter=0;entryX=0.337;entryY=1.002;entryDx=0;entryDy=0;entryPerimeter=0;" edge="1" parent="1">
          <mxGeometry width="50" height="50" relative="1" as="geometry">
            <mxPoint x="636.7539999999999" y="678.7199999999998" as="sourcePoint" />
            <mxPoint x="637.057" y="520" as="targetPoint" />
          </mxGeometry>
        </mxCell>
        <mxCell id="zPZvmB452a-3w2U6dylG-82" value="" style="endArrow=classic;html=1;rounded=0;" edge="1" parent="1">
          <mxGeometry width="50" height="50" relative="1" as="geometry">
            <mxPoint x="920" y="438.75" as="sourcePoint" />
            <mxPoint x="760" y="438.75" as="targetPoint" />
          </mxGeometry>
        </mxCell>
        <mxCell id="zPZvmB452a-3w2U6dylG-83" value="结果查询" style="edgeLabel;html=1;align=center;verticalAlign=middle;resizable=0;points=[];" vertex="1" connectable="0" parent="zPZvmB452a-3w2U6dylG-82">
          <mxGeometry x="0.35" y="-2" relative="1" as="geometry">
            <mxPoint x="28" as="offset" />
          </mxGeometry>
        </mxCell>
        <mxCell id="zPZvmB452a-3w2U6dylG-85" value="结&lt;br&gt;果&lt;br&gt;查&lt;br&gt;询" style="endArrow=classic;html=1;rounded=0;exitX=0.078;exitY=0.996;exitDx=0;exitDy=0;exitPerimeter=0;entryX=0.165;entryY=0.001;entryDx=0;entryDy=0;entryPerimeter=0;" edge="1" parent="1">
          <mxGeometry width="50" height="50" relative="1" as="geometry">
            <mxPoint x="610.1480000000004" y="520" as="sourcePoint" />
            <mxPoint x="609.9950000000001" y="681.0399999999997" as="targetPoint" />
          </mxGeometry>
        </mxCell>
        <mxCell id="zPZvmB452a-3w2U6dylG-86" value="结&lt;br&gt;果&lt;br&gt;查&lt;br&gt;询" style="endArrow=classic;html=1;rounded=0;exitX=0.078;exitY=0.996;exitDx=0;exitDy=0;exitPerimeter=0;entryX=0.165;entryY=0.001;entryDx=0;entryDy=0;entryPerimeter=0;" edge="1" parent="1">
          <mxGeometry width="50" height="50" relative="1" as="geometry">
            <mxPoint x="304.14800000000037" y="520" as="sourcePoint" />
            <mxPoint x="303.9950000000001" y="681.0399999999997" as="targetPoint" />
          </mxGeometry>
        </mxCell>
        <mxCell id="zPZvmB452a-3w2U6dylG-87" value="纠纷处理" style="rounded=1;whiteSpace=wrap;html=1;" vertex="1" parent="1">
          <mxGeometry x="344" y="440" width="110" height="60" as="geometry" />
        </mxCell>
        <mxCell id="zPZvmB452a-3w2U6dylG-89" value="创单二维码" style="rounded=1;whiteSpace=wrap;html=1;" vertex="1" parent="1">
          <mxGeometry x="467" y="300" width="70" height="60" as="geometry" />
        </mxCell>
        <mxCell id="zPZvmB452a-3w2U6dylG-90" value="收银台创单" style="rounded=1;whiteSpace=wrap;html=1;" vertex="1" parent="1">
          <mxGeometry x="467" y="370" width="70" height="60" as="geometry" />
        </mxCell>
        <mxCell id="zPZvmB452a-3w2U6dylG-91" value="扫码支付" style="rounded=1;whiteSpace=wrap;html=1;" vertex="1" parent="1">
          <mxGeometry x="467" y="440" width="70" height="60" as="geometry" />
        </mxCell>
        <mxCell id="zPZvmB452a-3w2U6dylG-92" value="管&lt;br&gt;理&lt;br&gt;后&lt;br&gt;台" style="rounded=1;whiteSpace=wrap;html=1;" vertex="1" parent="1">
          <mxGeometry x="545" y="300" width="30" height="200" as="geometry" />
        </mxCell>
      </root>
    </mxGraphModel>
  </diagram>
</mxfile>
